<?xml version="1.0" encoding="UTF-8"?>
<svg version="1.1" xmlns="http://www.w3.org/2000/svg" width="1024" height="1024" viewBox="96 70 1060 1060" role="img" aria-label="rauto icon">
<path d="M0,0 L1254,0 L1254,1254 L0,1254 Z " fill="#000D27" transform="translate(0,0)"/>
<path d="M0,0 L50,0 L50,22 L96,22 L96,34 L109,34 L109,46 L121,46 L121,58 L133,58 L133,71 L143,71 L143,72 L144,72 L144,107 L155,107 L155,133 L169,133 L169,157 L156,157 L156,168 L132,168 L132,180 L-86,180 L-86,191 L132,191 L132,190 L133,190 L133,180 L186,180 L186,194 L203,194 L203,206 L216,206 L216,223 L229,223 L229,236 L241,236 L241,257 L253,257 L253,247 L264,247 L264,235 L272,235 L272,223 L279,223 L279,206 L267,206 L267,202 L266,202 L266,195 L255,195 L255,178 L244,178 L244,157 L234,157 L234,80 L246,80 L246,92 L257,92 L257,105 L267,105 L267,123 L278,123 L278,145 L300,145 L300,84 L291,84 L291,59 L279,59 L279,46 L311,46 L311,58 L324,58 L324,71 L336,71 L336,82 L347,82 L347,96 L357,96 L357,116 L367,116 L367,196 L357,196 L357,211 L346,211 L346,223 L330,223 L330,231 L319,231 L319,253 L309,253 L309,264 L300,264 L300,274 L290,274 L290,285 L260,285 L260,297 L245,297 L245,308 L231,308 L231,319 L219,319 L219,331 L186,331 L186,343 L175,343 L175,354 L165,354 L165,359 L154,359 L154,369 L122,369 L122,380 L76,380 L76,392 L-29,392 L-29,380 L-72,380 L-72,369 L-84,369 L-84,354 L-93,354 L-93,341 L-101,341 L-101,331 L-112,331 L-112,319 L-136,319 L-136,308 L-181,308 L-181,319 L-192,319 L-192,308 L-202,308 L-202,297 L-214,297 L-214,285 L-241,285 L-241,274 L-249,274 L-249,265 L-259,265 L-259,253 L-269,253 L-269,231 L-280,231 L-280,222 L-291,222 L-291,211 L-302,211 L-302,196 L-313,196 L-313,114 L-302,114 L-302,96 L-292,96 L-292,82 L-281,82 L-281,70 L-270,70 L-270,58 L-259,58 L-259,46 L-225,46 L-225,59 L-238,59 L-238,84 L-247,84 L-247,144 L-226,144 L-226,123 L-215,123 L-215,105 L-205,105 L-205,92 L-195,92 L-195,80 L-183,80 L-183,157 L-193,157 L-193,178 L-202,178 L-202,179 L-203,179 L-203,190 L-213,190 L-213,202 L-225,202 L-225,211 L-235,211 L-235,223 L-224,223 L-224,235 L-213,235 L-213,246 L-202,246 L-202,257 L-192,257 L-192,235 L-181,235 L-181,223 L-170,223 L-170,206 L-159,206 L-159,194 L-136,194 L-136,180 L-87,180 L-87,169 L-111,169 L-111,157 L-124,157 L-124,132 L-111,132 L-111,107 L-99,107 L-99,75 L-91,75 L-91,70 L-85,70 L-85,58 L-73,58 L-73,46 L-59,46 L-59,34 L-45,34 L-45,22 L0,22 Z " fill="#008DFC" transform="translate(601,317)"/>
<path d="M0,0 L39,0 L39,11 L65,11 L65,23 L74,23 L74,35 L75,35 L75,36 L83,36 L83,50 L95,50 L95,105 L354,105 L354,116 L366,116 L366,128 L376,128 L376,139 L387,139 L387,153 L398,153 L398,237 L387,237 L387,248 L206,248 L206,314 L216,314 L216,320 L225,320 L225,329 L368,329 L368,290 L378,290 L378,282 L470,282 L470,291 L480,291 L480,374 L469,374 L469,385 L379,385 L379,374 L368,374 L368,343 L224,343 L224,331 L215,331 L215,329 L206,329 L206,323 L205,323 L205,316 L192,316 L192,329 L184,329 L184,330 L174,330 L174,331 L173,331 L173,343 L22,343 L22,374 L12,374 L12,385 L-79,385 L-79,374 L-90,374 L-90,358 L-91,358 L-91,290 L-80,290 L-80,282 L12,282 L12,290 L22,290 L22,329 L173,329 L173,320 L182,320 L182,314 L191,314 L191,248 L0,248 L0,237 L-11,237 L-11,152 L0,152 L0,140 L10,140 L10,133 L21,133 L21,139 L33,139 L33,149 L64,149 L64,139 L39,139 L39,138 L38,138 L38,128 L20,128 L20,117 L10,117 L10,105 L-1,105 L-1,94 L-12,94 L-12,73 L-23,73 L-23,83 L-19,83 L-19,94 L-23,94 L-23,99 L-34,99 L-34,115 L-42,115 L-42,149 L-51,149 L-51,135 L-60,135 L-60,72 L-55,72 L-55,61 L-45,61 L-45,49 L-34,49 L-34,61 L-24,61 L-24,22 L-13,22 L-13,11 L0,11 Z " fill="#013082" transform="translate(422,636)"/>
<path d="M0,0 L50,0 L50,22 L96,22 L96,34 L109,34 L109,46 L121,46 L121,58 L133,58 L133,71 L143,71 L143,72 L144,72 L144,107 L155,107 L155,133 L169,133 L169,157 L156,157 L156,168 L132,168 L132,169 L-86,169 L-86,157 L-124,157 L-124,132 L-111,132 L-111,107 L-99,107 L-99,75 L-91,75 L-91,70 L-85,70 L-85,58 L-73,58 L-73,46 L-59,46 L-59,34 L-45,34 L-45,22 L0,22 Z " fill="#0164E5" transform="translate(601,317)"/>
<path d="M0,0 L39,0 L39,11 L65,11 L65,23 L74,23 L74,35 L75,35 L75,36 L83,36 L83,50 L95,50 L95,105 L354,105 L354,116 L366,116 L366,128 L376,128 L376,139 L387,139 L387,153 L398,153 L398,236 L387,236 L387,163 L0,163 L0,236 L-11,236 L-11,152 L0,152 L0,140 L10,140 L10,133 L21,133 L21,139 L33,139 L33,149 L64,149 L64,139 L39,139 L39,138 L38,138 L38,128 L20,128 L20,117 L10,117 L10,105 L-1,105 L-1,94 L-12,94 L-12,73 L-23,73 L-23,83 L-19,83 L-19,94 L-23,94 L-23,99 L-34,99 L-34,115 L-42,115 L-42,149 L-51,149 L-51,135 L-60,135 L-60,72 L-55,72 L-55,61 L-45,61 L-45,49 L-34,49 L-34,61 L-24,61 L-24,22 L-13,22 L-13,11 L0,11 Z " fill="#023A8F" transform="translate(422,636)"/>
<path d="M0,0 L13,0 L13,66 L24,66 L24,72 L33,72 L33,81 L176,81 L176,42 L186,42 L186,34 L278,34 L278,43 L288,43 L288,126 L277,126 L277,137 L187,137 L187,126 L176,126 L176,95 L32,95 L32,83 L23,83 L23,81 L14,81 L14,75 L13,75 L13,68 L0,68 L0,81 L-8,81 L-8,82 L-18,82 L-18,83 L-19,83 L-19,95 L-170,95 L-170,126 L-180,126 L-180,137 L-271,137 L-271,126 L-282,126 L-282,110 L-283,110 L-283,42 L-272,42 L-272,34 L-180,34 L-180,42 L-170,42 L-170,81 L-19,81 L-19,72 L-10,72 L-10,66 L0,66 Z " fill="#0CDEF8" transform="translate(614,884)"/>
<path d="M0,0 L13,0 L13,29 L66,29 L66,41 L107,41 L107,51 L140,51 L140,63 L168,63 L168,74 L179,74 L179,75 L193,75 L193,85 L206,85 L206,96 L226,96 L226,107 L238,107 L238,118 L259,118 L259,129 L269,129 L269,139 L279,139 L279,150 L288,150 L288,161 L298,161 L298,172 L309,172 L309,183 L319,183 L319,197 L329,197 L329,219 L340,219 L340,231 L350,231 L350,252 L360,252 L360,266 L370,266 L370,293 L381,293 L381,317 L391,317 L391,351 L401,351 L401,390 L411,390 L411,545 L401,545 L401,586 L390,586 L390,617 L380,617 L380,642 L370,642 L370,643 L369,643 L369,666 L359,666 L359,688 L349,688 L349,700 L339,700 L339,719 L327,719 L327,731 L317,731 L317,750 L306,750 L306,760 L296,760 L296,770 L286,770 L286,780 L268,780 L268,756 L278,756 L278,745 L287,745 L287,734 L297,734 L297,723 L307,723 L307,709 L317,709 L317,690 L328,690 L328,672 L339,672 L339,655 L349,655 L349,632 L360,632 L360,605 L371,605 L371,573 L381,573 L381,523 L391,523 L391,432 L381,432 L381,375 L372,375 L372,341 L361,341 L361,307 L350,307 L350,282 L340,282 L340,267 L330,267 L330,245 L320,245 L320,227 L309,227 L309,210 L298,210 L298,196 L287,196 L287,183 L275,183 L275,172 L264,172 L264,160 L253,160 L253,149 L244,149 L244,139 L227,139 L227,129 L214,129 L214,118 L198,118 L198,107 L179,107 L179,98 L165,98 L165,88 L140,88 L140,77 L108,77 L108,65 L67,65 L67,54 L66,54 L66,53 L13,53 L13,83 L0,83 L0,74 L-11,74 L-11,64 L-23,64 L-23,54 L-33,54 L-33,51 L-43,51 L-43,41 L-33,41 L-33,30 L-22,30 L-22,21 L-11,21 L-11,11 L0,11 Z " fill="#925AF7" transform="translate(652,132)"/>
<path d="M0,0 L57,0 L57,26 L0,26 L0,38 L-57,38 L-57,49 L-81,49 L-81,60 L-104,60 L-104,71 L-114,71 L-114,81 L-135,81 L-135,91 L-146,91 L-146,102 L-160,102 L-160,112 L-170,112 L-170,122 L-181,122 L-181,133 L-191,133 L-191,145 L-202,145 L-202,157 L-213,157 L-213,169 L-224,169 L-224,183 L-235,183 L-235,200 L-246,200 L-246,218 L-257,218 L-257,232 L-268,232 L-268,255 L-278,255 L-278,280 L-290,280 L-290,310 L-301,310 L-301,350 L-312,350 L-312,495 L-302,495 L-302,545 L-291,545 L-291,577 L-280,577 L-280,604 L-269,604 L-269,627 L-258,627 L-258,646 L-247,646 L-247,663 L-236,663 L-236,681 L-225,681 L-225,695 L-212,695 L-212,711 L-200,711 L-200,743 L-214,743 L-214,732 L-224,732 L-224,721 L-235,721 L-235,712 L-246,712 L-246,691 L-257,691 L-257,672 L-268,672 L-268,660 L-279,660 L-279,638 L-290,638 L-290,615 L-301,615 L-301,588 L-312,588 L-312,556 L-322,556 L-322,514 L-331,514 L-331,513 L-332,513 L-332,347 L-321,347 L-321,307 L-311,307 L-311,276 L-299,276 L-299,246 L-288,246 L-288,225 L-278,225 L-278,211 L-268,211 L-268,190 L-257,190 L-257,177 L-246,177 L-246,157 L-235,157 L-235,145 L-224,145 L-224,134 L-213,134 L-213,123 L-203,123 L-203,112 L-195,112 L-195,102 L-185,102 L-185,92 L-173,92 L-173,81 L-155,81 L-155,70 L-145,70 L-145,61 L-135,61 L-135,50 L-116,50 L-116,38 L-102,38 L-102,37 L-89,37 L-89,25 L-57,25 L-57,13 L0,13 Z " fill="#1094F5" transform="translate(523,160)"/>
<path d="M0,0 L34,0 L34,13 L21,13 L21,38 L12,38 L12,98 L33,98 L33,77 L44,77 L44,59 L54,59 L54,46 L64,46 L64,34 L76,34 L76,111 L66,111 L66,132 L57,132 L57,133 L56,133 L56,144 L46,144 L46,156 L34,156 L34,165 L13,165 L13,177 L-11,177 L-11,165 L-43,165 L-43,150 L-54,150 L-54,68 L-43,68 L-43,50 L-33,50 L-33,36 L-22,36 L-22,24 L-11,24 L-11,12 L0,12 Z " fill="#018BFA" transform="translate(342,363)"/>
<path d="M0,0 L32,0 L32,12 L45,12 L45,25 L57,25 L57,36 L68,36 L68,50 L78,50 L78,71 L87,71 L87,132 L77,132 L77,147 L66,147 L66,156 L56,156 L56,165 L41,165 L41,177 L11,177 L11,165 L0,165 L0,160 L-12,160 L-12,156 L-13,156 L-13,149 L-24,149 L-24,132 L-35,132 L-35,111 L-45,111 L-45,34 L-33,34 L-33,46 L-22,46 L-22,59 L-12,59 L-12,77 L-1,77 L-1,99 L21,99 L21,38 L12,38 L12,13 L0,13 Z " fill="#008BFC" transform="translate(880,363)"/>
<path d="M0,0 L39,0 L39,11 L65,11 L65,23 L74,23 L74,35 L75,35 L75,36 L83,36 L83,50 L95,50 L95,105 L110,105 L110,128 L98,128 L98,138 L70,138 L70,116 L81,116 L81,94 L69,94 L69,82 L57,82 L57,72 L45,72 L45,61 L33,61 L33,72 L44,72 L44,105 L55,105 L55,116 L64,116 L64,138 L38,138 L38,128 L20,128 L20,117 L10,117 L10,105 L-1,105 L-1,94 L-12,94 L-12,73 L-23,73 L-23,83 L-19,83 L-19,94 L-23,94 L-23,99 L-34,99 L-34,115 L-42,115 L-42,149 L-51,149 L-51,135 L-60,135 L-60,72 L-55,72 L-55,61 L-45,61 L-45,49 L-34,49 L-34,61 L-24,61 L-24,22 L-13,22 L-13,11 L0,11 Z " fill="#018CFA" transform="translate(422,636)"/>
<path d="M0,0 L231,0 L231,53 L0,53 Z " fill="#3667B2" transform="translate(543,814)"/>
<path d="M0,0 L10,0 L10,80 L0,80 L0,95 L-11,95 L-11,107 L-27,107 L-27,115 L-38,115 L-38,137 L-48,137 L-48,148 L-57,148 L-57,158 L-67,158 L-67,169 L-97,169 L-97,181 L-112,181 L-112,192 L-126,192 L-126,203 L-138,203 L-138,215 L-171,215 L-171,227 L-182,227 L-182,238 L-192,238 L-192,243 L-203,243 L-203,253 L-235,253 L-235,264 L-281,264 L-281,276 L-386,276 L-386,264 L-429,264 L-429,253 L-441,253 L-441,239 L-429,239 L-429,242 L-403,242 L-403,252 L-281,252 L-281,242 L-247,242 L-247,239 L-225,239 L-225,228 L-203,228 L-203,215 L-182,215 L-182,203 L-160,203 L-160,192 L-149,192 L-149,181 L-138,181 L-138,169 L-116,169 L-116,157 L-79,157 L-79,145 L-67,145 L-67,138 L-57,138 L-57,131 L-49,131 L-49,119 L-58,119 L-58,108 L-84,108 L-84,120 L-93,120 L-93,119 L-85,119 L-85,107 L-78,107 L-78,95 L-67,95 L-67,107 L-37,107 L-37,95 L-22,95 L-22,86 L-12,86 L-12,77 L-1,77 L-1,62 L9,62 L9,1 L0,1 Z " fill="#004DC8" transform="translate(958,433)"/>
<path d="M0,0 L68,0 L68,13 L78,13 L78,35 L142,35 L142,34 L143,34 L143,23 L179,23 L179,47 L166,47 L166,58 L142,58 L142,59 L-76,59 L-76,47 L-114,47 L-114,23 L-76,23 L-76,34 L-10,34 L-10,13 L0,13 Z " fill="#2EC4FC" transform="translate(591,427)"/>
<path d="M0,0 L2,0 L2,1 L3,1 L3,4 L2,4 L2,19 L3,19 L3,20 L2,20 L2,23 L3,23 L3,24 L2,24 L2,31 L1,31 L1,32 L-9,32 L-9,37 L-8,37 L-8,45 L-9,45 L-9,46 L-8,46 L-8,47 L-4,47 L-4,48 L10,48 L10,74 L-1,74 L-1,219 L9,219 L9,269 L20,269 L20,301 L31,301 L31,328 L42,328 L42,351 L53,351 L53,370 L64,370 L64,387 L75,387 L75,405 L86,405 L86,419 L99,419 L99,435 L111,435 L111,467 L97,467 L97,456 L87,456 L87,445 L76,445 L76,436 L65,436 L65,415 L54,415 L54,396 L43,396 L43,384 L32,384 L32,362 L21,362 L21,339 L10,339 L10,312 L-1,312 L-1,280 L-11,280 L-11,238 L-20,238 L-20,237 L-21,237 L-21,71 L-10,71 L-10,31 L0,31 Z " fill="#0168DE" transform="translate(212,436)"/>
<path d="M0,0 L23,0 L23,35 L137,35 L137,24 L185,24 L185,12 L217,12 L217,2 L256,2 L256,23 L224,23 L224,35 L192,35 L192,47 L138,47 L138,59 L40,59 L40,47 L23,47 L23,78 L12,78 L12,69 L0,69 L0,59 L-16,59 L-16,47 L-27,47 L-27,35 L-38,35 L-38,24 L-21,24 L-21,12 L0,12 Z " fill="#0DD0FA" transform="translate(510,1028)"/>
<path d="M0,0 L33,0 L33,87 L22,87 L22,100 L11,100 L11,110 L-40,110 L-40,99 L-41,99 L-41,98 L-53,98 L-53,54 L-46,54 L-46,48 L-40,48 L-40,36 L-28,36 L-28,24 L-14,24 L-14,12 L0,12 Z " fill="#26C2FC" transform="translate(556,339)"/>
<path d="M0,0 L35,0 L35,12 L48,12 L48,24 L60,24 L60,36 L72,36 L72,49 L82,49 L82,98 L71,98 L71,110 L19,110 L19,100 L11,100 L11,87 L0,87 Z " fill="#26C2FC" transform="translate(662,339)"/>
<path d="M0,0 L11,0 L11,14 L22,14 L22,97 L11,97 L11,24 L-376,24 L-376,97 L-387,97 L-387,13 L-376,13 L-376,1 L-365,1 L-365,12 L0,12 Z " fill="#29A2F8" transform="translate(798,775)"/>
<path d="M0,0 L25,0 L25,12 L243,12 L243,23 L25,23 L25,34 L243,34 L243,33 L244,33 L244,23 L266,23 L266,37 L244,37 L244,49 L25,49 L25,37 L1,37 L1,24 L-24,24 L-24,37 L-25,37 L-25,23 L24,23 L24,12 L0,12 Z " fill="#0047BF" transform="translate(490,474)"/>
<path d="M0,0 L87,0 L87,76 L0,76 Z " fill="#003588" transform="translate(803,932)"/>
<path d="M0,0 L86,0 L86,76 L0,76 Z " fill="#003588" transform="translate(345,932)"/>
<path d="M0,0 L41,0 L41,12 L57,12 L57,25 L68,25 L68,37 L79,37 L79,110 L68,110 L68,125 L55,125 L55,79 L45,79 L45,70 L39,70 L39,59 L23,59 L23,49 L12,49 L12,37 L-22,37 L-22,25 L-12,25 L-12,12 L0,12 Z " fill="#018BFB" transform="translate(788,660)"/>
<path d="M0,0 L49,0 L49,98 L0,98 Z " fill="#24C1FD" transform="translate(601,317)"/>
<path d="M0,0 L35,0 L35,10 L45,10 L45,21 L56,21 L56,31 L65,31 L65,47 L74,47 L74,109 L65,109 L65,116 L54,116 L54,78 L44,78 L44,60 L34,60 L34,49 L23,49 L23,46 L11,46 L11,35 L0,35 L0,31 L-13,31 L-13,22 L-22,22 L-22,21 L-13,21 L-13,10 L0,10 Z " fill="#028BF6" transform="translate(856,626)"/>
<path d="M0,0 L36,0 L36,10 L47,10 L47,22 L36,22 L36,35 L25,35 L25,46 L13,46 L13,49 L1,49 L1,60 L-10,60 L-10,79 L-21,79 L-21,116 L-31,116 L-31,109 L-41,109 L-41,48 L-31,48 L-31,32 L-21,32 L-21,21 L-10,21 L-10,10 L0,10 Z " fill="#018DFB" transform="translate(352,626)"/>
<path d="M0,0 L34,0 L34,11 L46,11 L46,64 L34,64 L34,76 L1,76 L1,64 L-11,64 L-11,10 L0,10 Z " fill="#020E27" transform="translate(531,541)"/>
<path d="M0,0 L34,0 L34,11 L45,11 L45,64 L33,64 L33,76 L0,76 L0,64 L-12,64 L-12,11 L0,11 Z " fill="#010E27" transform="translate(677,541)"/>
<path d="M0,0 L1,0 L1,27 L11,27 L11,39 L12,39 L12,50 L23,50 L23,72 L12,72 L12,51 L1,51 L1,61 L5,61 L5,72 L1,72 L1,77 L-10,77 L-10,93 L-18,93 L-18,127 L-27,127 L-27,113 L-36,113 L-36,50 L-31,50 L-31,39 L-21,39 L-21,27 L-10,27 L-10,39 L0,39 Z " fill="#0043B7" transform="translate(398,658)"/>
<path d="M0,0 L21,0 L21,12 L45,12 L45,0 L56,0 L56,12 L67,12 L67,24 L66,24 L66,13 L44,13 L44,24 L34,24 L34,36 L44,36 L44,49 L56,49 L56,62 L99,62 L99,74 L109,74 L109,86 L122,86 L122,97 L110,97 L110,108 L99,108 L99,97 L89,97 L89,86 L77,86 L77,74 L50,74 L50,63 L42,63 L42,54 L32,54 L32,42 L22,42 L22,20 L11,20 L11,11 L0,11 Z " fill="#004EC9" transform="translate(310,528)"/>
<path d="M0,0 L204,0 L204,11 L0,11 Z " fill="#A9EAFD" transform="translate(529,474)"/>
<path d="M0,0 L218,0 L218,10 L0,10 Z " fill="#006EF1" transform="translate(515,486)"/>
<path d="M0,0 L1,0 L1,88 L-85,88 L-85,87 L-79,87 L-79,86 L-73,86 L-73,85 L-69,85 L-69,84 L-67,84 L-67,83 L-64,83 L-64,82 L-62,82 L-62,81 L-59,81 L-59,80 L-57,80 L-57,79 L-54,79 L-54,78 L-52,78 L-52,77 L-50,77 L-50,76 L-49,76 L-49,75 L-47,75 L-47,74 L-46,74 L-46,73 L-44,73 L-44,72 L-42,72 L-42,71 L-41,71 L-41,70 L-40,70 L-40,69 L-38,69 L-38,68 L-37,68 L-37,67 L-36,67 L-36,66 L-35,66 L-35,65 L-33,65 L-33,64 L-32,64 L-32,63 L-31,63 L-31,62 L-30,62 L-30,61 L-29,61 L-29,60 L-28,60 L-28,59 L-27,59 L-27,58 L-26,58 L-26,57 L-25,57 L-25,56 L-24,56 L-24,55 L-23,55 L-23,53 L-22,53 L-22,52 L-21,52 L-21,51 L-20,51 L-20,50 L-19,50 L-19,49 L-18,49 L-18,47 L-17,47 L-17,46 L-16,46 L-16,44 L-15,44 L-15,43 L-14,43 L-14,41 L-13,41 L-13,40 L-12,40 L-12,38 L-11,38 L-11,36 L-10,36 L-10,34 L-9,34 L-9,32 L-8,32 L-8,30 L-7,30 L-7,28 L-6,28 L-6,25 L-5,25 L-5,23 L-4,23 L-4,21 L-3,21 L-3,16 L-2,16 L-2,13 L-1,13 L-1,5 L0,5 Z " fill="#000000" transform="translate(1253,1166)"/>
<path d="M0,0 L1,0 L1,8 L2,8 L2,11 L3,11 L3,16 L4,16 L4,19 L5,19 L5,22 L6,22 L6,25 L7,25 L7,28 L8,28 L8,30 L9,30 L9,33 L10,33 L10,35 L11,35 L11,36 L12,36 L12,38 L13,38 L13,40 L14,40 L14,41 L15,41 L15,43 L16,43 L16,44 L17,44 L17,46 L18,46 L18,47 L19,47 L19,49 L20,49 L20,50 L21,50 L21,51 L22,51 L22,52 L23,52 L23,54 L24,54 L24,55 L25,55 L25,56 L26,56 L26,57 L27,57 L27,58 L28,58 L28,59 L29,59 L29,60 L30,60 L30,61 L31,61 L31,62 L32,62 L32,63 L33,63 L33,64 L34,64 L34,65 L36,65 L36,66 L37,66 L37,67 L38,67 L38,68 L39,68 L39,69 L41,69 L41,70 L42,70 L42,71 L44,71 L44,72 L45,72 L45,73 L47,73 L47,74 L48,74 L48,75 L50,75 L50,76 L51,76 L51,77 L53,77 L53,78 L55,78 L55,79 L57,79 L57,80 L60,80 L60,81 L62,81 L62,82 L64,82 L64,83 L69,83 L69,84 L71,84 L71,85 L73,85 L73,86 L78,86 L78,87 L81,87 L81,88 L0,88 Z " fill="#000000" transform="translate(0,1166)"/>
<path d="M0,0 L88,0 L88,85 L87,85 L87,80 L86,80 L86,76 L85,76 L85,72 L84,72 L84,68 L83,68 L83,65 L82,65 L82,62 L81,62 L81,60 L80,60 L80,58 L79,58 L79,55 L78,55 L78,53 L77,53 L77,52 L76,52 L76,50 L75,50 L75,48 L74,48 L74,47 L73,47 L73,45 L72,45 L72,44 L71,44 L71,42 L70,42 L70,41 L69,41 L69,39 L68,39 L68,38 L67,38 L67,37 L66,37 L66,35 L65,35 L65,34 L64,34 L64,33 L63,33 L63,32 L62,32 L62,31 L61,31 L61,30 L60,30 L60,29 L59,29 L59,28 L58,28 L58,27 L57,27 L57,26 L56,26 L56,25 L55,25 L55,24 L54,24 L54,23 L53,23 L53,22 L51,22 L51,21 L50,21 L50,20 L49,20 L49,19 L48,19 L48,18 L46,18 L46,17 L45,17 L45,16 L43,16 L43,15 L42,15 L42,14 L40,14 L40,13 L38,13 L38,12 L37,12 L37,11 L35,11 L35,10 L33,10 L33,9 L31,9 L31,8 L28,8 L28,7 L26,7 L26,6 L23,6 L23,5 L20,5 L20,4 L18,4 L18,3 L15,3 L15,2 L6,2 L6,1 L0,1 Z " fill="#000000" transform="translate(1166,0)"/>
<path d="M0,0 L85,0 L85,1 L80,1 L80,2 L73,2 L73,3 L69,3 L69,4 L67,4 L67,5 L64,5 L64,6 L61,6 L61,7 L59,7 L59,8 L57,8 L57,9 L55,9 L55,10 L53,10 L53,11 L51,11 L51,12 L50,12 L50,13 L48,13 L48,14 L46,14 L46,15 L45,15 L45,16 L43,16 L43,17 L42,17 L42,18 L40,18 L40,19 L39,19 L39,20 L38,20 L38,21 L37,21 L37,22 L35,22 L35,23 L34,23 L34,24 L33,24 L33,25 L32,25 L32,26 L31,26 L31,27 L30,27 L30,28 L29,28 L29,29 L28,29 L28,30 L27,30 L27,31 L26,31 L26,32 L25,32 L25,33 L24,33 L24,34 L23,34 L23,35 L22,35 L22,37 L21,37 L21,38 L20,38 L20,40 L19,40 L19,41 L18,41 L18,42 L17,42 L17,44 L16,44 L16,45 L15,45 L15,47 L14,47 L14,48 L13,48 L13,50 L12,50 L12,52 L11,52 L11,54 L10,54 L10,56 L9,56 L9,58 L8,58 L8,60 L7,60 L7,62 L6,62 L6,66 L5,66 L5,69 L4,69 L4,72 L3,72 L3,75 L2,75 L2,80 L1,80 L1,84 L0,84 Z " fill="#000000" transform="translate(0,0)"/>
<path d="M0,0 L39,0 L39,11 L65,11 L65,23 L74,23 L74,35 L75,35 L75,36 L83,36 L83,50 L94,50 L94,83 L82,83 L82,50 L70,50 L70,35 L56,35 L56,24 L39,24 L39,12 L0,12 L0,24 L-13,24 L-13,36 L-23,36 L-23,22 L-13,22 L-13,11 L0,11 Z " fill="#3EC8FB" transform="translate(422,636)"/>
<path d="M0,0 L140,0 L140,12 L0,12 Z " fill="#0DEBFC" transform="translate(455,966)"/>
<path d="M0,0 L42,0 L42,40 L1,40 L1,39 L0,39 Z " fill="#0BC2F9" transform="translate(367,950)"/>
<path d="M0,0 L41,0 L41,40 L0,40 Z " fill="#0DC5FA" transform="translate(826,950)"/>
<path d="M0,0 L133,0 L133,12 L0,12 Z " fill="#0DEAFC" transform="translate(647,966)"/>
<path d="M0,0 L22,0 L22,12 L10,12 L10,37 L0,37 L0,97 L-10,97 L-10,76 L-21,76 L-21,35 L0,35 Z " fill="#30C1FC" transform="translate(353,364)"/>
<path d="M0,0 L12,0 L12,13 L35,13 L35,25 L45,25 L45,37 L57,37 L57,47 L67,47 L67,67 L57,67 L57,58 L51,58 L51,47 L35,47 L35,37 L24,37 L24,25 L-10,25 L-10,13 L0,13 Z " fill="#004BC6" transform="translate(776,672)"/>
<path d="M0,0 L12,0 L12,11 L24,11 L24,21 L36,21 L36,33 L48,33 L48,55 L36,55 L36,78 L32,78 L32,55 L22,55 L22,44 L11,44 L11,11 L0,11 Z " fill="#000F2B" transform="translate(455,697)"/>
<path d="M0,0 L32,0 L32,13 L21,13 L21,25 L22,25 L22,36 L32,36 L32,98 L21,98 L21,38 L12,38 L12,13 L0,13 Z " fill="#28BFF4" transform="translate(880,363)"/>
<path d="M0,0 L11,0 L11,34 L1,34 L1,56 L-6,56 L-6,85 L-15,85 L-15,23 L-10,23 L-10,12 L0,12 Z " fill="#0281F4" transform="translate(377,685)"/>
<path d="M0,0 L45,0 L45,11 L69,11 L69,23 L80,23 L80,33 L88,33 L88,46 L97,46 L97,61 L85,61 L85,47 L77,47 L77,46 L76,46 L76,34 L67,34 L67,22 L41,22 L41,11 L2,11 L2,10 L41,10 L41,9 L1,9 L1,1 L0,1 Z " fill="#02152F" transform="translate(420,625)"/>
<path d="M0,0 L13,0 L13,11 L65,11 L65,0 L77,0 L77,11 L68,11 L68,22 L58,22 L58,30 L19,30 L19,22 L9,22 L9,11 L0,11 Z " fill="#000E28" transform="translate(582,625)"/>
<path d="M0,0 L68,0 L68,13 L78,13 L78,23 L68,23 L68,14 L1,14 L1,23 L-10,23 L-10,13 L0,13 Z " fill="#B2ECFD" transform="translate(591,427)"/>
<path d="M0,0 L37,0 L37,25 L27,25 L27,35 L9,35 L9,25 L-1,25 L-1,10 L0,10 Z " fill="#030F29" transform="translate(612,827)"/>
<path d="M0,0 L37,0 L37,25 L28,25 L28,34 L27,34 L27,35 L10,35 L10,25 L-1,25 L-1,10 L0,10 Z " fill="#020E28" transform="translate(725,827)"/>
<path d="M0,0 L38,0 L38,25 L27,25 L27,35 L11,35 L11,34 L10,34 L10,25 L0,25 Z " fill="#020E26" transform="translate(668,827)"/>
<path d="M0,0 L37,0 L37,25 L27,25 L27,35 L10,35 L10,25 L0,25 Z " fill="#010C24" transform="translate(555,827)"/>
<path d="M0,0 L1,0 L1,11 L3,11 L3,12 L11,12 L11,22 L24,22 L24,34 L34,34 L34,49 L23,49 L23,46 L11,46 L11,35 L0,35 L0,31 L-13,31 L-13,22 L-22,22 L-22,21 L-13,21 L-13,10 L0,10 Z " fill="#004DC7" transform="translate(856,626)"/>
<path d="M0,0 L1,0 L1,4 L2,4 L2,5 L-8,5 L-8,16 L-9,16 L-9,5 L-10,5 L-10,15 L-97,15 L-97,12 L-98,12 L-98,5 L-97,5 L-97,4 L-12,4 L-12,3 L-10,3 L-10,4 L-9,4 L-9,3 L0,3 Z " fill="#0FCBFB" transform="translate(442,1005)"/>
<path d="M0,0 L87,0 L87,11 L0,11 Z " fill="#11CBFB" transform="translate(803,1009)"/>
<path d="M0,0 L14,0 L14,22 L3,22 L3,32 L-25,32 L-25,10 L-1,10 L-1,9 L0,9 Z " fill="#10F0F9" transform="translate(517,742)"/>
<path d="M0,0 L25,0 L25,22 L243,22 L243,23 L25,23 L25,33 L24,33 L24,35 L7,35 L7,36 L24,36 L24,37 L1,37 L1,24 L-24,24 L-24,37 L-25,37 L-25,23 L24,23 L24,12 L0,12 Z " fill="#004EB8" transform="translate(490,474)"/>
<path d="M0,0 L11,0 L11,12 L0,12 L0,25 L-11,25 L-11,36 L-23,36 L-23,39 L-34,39 L-34,25 L-23,25 L-23,12 L-11,12 L-11,2 L0,2 Z " fill="#0047C1" transform="translate(388,636)"/>
<path d="M0,0 L11,0 L11,1 L1,1 L1,11 L11,11 L11,84 L0,84 Z " fill="#137CE2" transform="translate(411,788)"/>
<path d="M0,0 L11,0 L11,73 L0,73 Z " fill="#147FE9" transform="translate(809,799)"/>
<path d="M0,0 L49,0 L49,22 L38,22 L38,13 L0,13 Z " fill="#ADEBFC" transform="translate(601,317)"/>
<path d="M0,0 L29,0 L29,11 L45,11 L45,24 L56,24 L56,36 L43,36 L43,24 L27,24 L27,11 L0,11 Z " fill="#3AC6FB" transform="translate(800,661)"/>
<path d="M0,0 L24,0 L24,11 L1,11 L1,22 L-10,22 L-10,33 L-21,33 L-21,46 L-31,46 L-31,32 L-21,32 L-21,21 L-10,21 L-10,10 L0,10 Z " fill="#33C0F8" transform="translate(352,626)"/>
<path d="M0,0 L10,0 L10,51 L0,51 L0,25 L-10,25 L-10,12 L-1,12 L-1,11 L0,11 Z " fill="#32C2FD" transform="translate(407,398)"/>
<path d="M0,0 L1,0 L1,5 L6,5 L6,6 L1,6 L1,29 L-5,29 L-5,58 L-14,58 L-14,7 L0,7 Z " fill="#0288FA" transform="translate(376,712)"/>
<path d="M0,0 L35,0 L35,12 L48,12 L48,24 L34,24 L34,12 L0,12 Z " fill="#A2E7FB" transform="translate(662,339)"/>
<path d="M0,0 L22,0 L22,25 L0,25 Z " fill="#F2F2F3" transform="translate(677,552)"/>
<path d="M0,0 L22,0 L22,24 L0,24 Z " fill="#945BF6" transform="translate(486,827)"/>
<path d="M0,0 L22,0 L22,24 L0,24 Z " fill="#F5F5F6" transform="translate(532,552)"/>
<path d="M0,0 L10,0 L10,51 L0,51 Z " fill="#36C9FC" transform="translate(836,398)"/>
<path d="M0,0 L21,0 L21,24 L0,24 Z " fill="#0AE7F6" transform="translate(449,827)"/>
<path d="M0,0 L24,0 L24,10 L34,10 L34,21 L44,21 L44,32 L34,32 L34,22 L24,22 L24,11 L0,11 Z " fill="#36BBF8" transform="translate(867,626)"/>
<path d="M0,0 L8,0 L8,61 L0,61 Z " fill="#31C2FC" transform="translate(903,400)"/>
<path d="M0,0 L10,0 L10,32 L22,32 L22,43 L10,43 L10,33 L0,33 Z " fill="#2EC1FC" transform="translate(455,709)"/>
<path d="M0,0 L1,0 L1,64 L11,64 L11,79 L22,79 L22,97 L11,97 L11,82 L0,82 Z " fill="#0057CE" transform="translate(288,431)"/>
<path d="M0,0 L151,0 L151,1 L11,1 L11,13 L151,13 L151,14 L0,14 Z " fill="#06B0D0" transform="translate(444,965)"/>
<path d="M0,0 L11,0 L11,6 L20,6 L20,15 L163,15 L163,16 L20,16 L20,29 L19,29 L19,17 L10,17 L10,15 L1,15 L1,9 L0,9 Z " fill="#0BB6CA" transform="translate(627,950)"/>
<path d="M0,0 L33,0 L33,12 L0,12 Z " fill="#A4E6F9" transform="translate(556,339)"/>
<path d="M0,0 L10,0 L10,80 L0,80 L0,95 L-11,95 L-11,106 L-27,106 L-27,105 L-13,105 L-13,94 L-12,94 L-12,93 L-2,93 L-2,79 L-6,79 L-6,78 L-1,78 L-1,62 L9,62 L9,1 L0,1 Z " fill="#0059CF" transform="translate(958,433)"/>
<path d="M0,0 L68,0 L68,1 L1,1 L1,13 L78,13 L78,23 L68,23 L68,14 L1,14 L1,23 L-10,23 L-10,13 L0,13 Z " fill="#7FD3FB" transform="translate(591,427)"/>
<path d="M0,0 L52,0 L52,1 L13,1 L13,13 L0,13 L0,25 L-10,25 L-10,11 L0,11 Z " fill="#30C0F6" transform="translate(409,647)"/>
<path d="M0,0 L13,0 L13,11 L25,11 L25,23 L12,23 L12,12 L0,12 Z " fill="#7FDFFE" transform="translate(478,450)"/>
<path d="M0,0 L11,0 L11,6 L23,6 L23,17 L1,17 L1,7 L0,7 Z " fill="#02398F" transform="translate(432,769)"/>
<path d="M0,0 L1,0 L1,10 L9,10 L9,23 L18,23 L18,38 L6,38 L6,24 L-2,24 L-2,23 L6,23 L6,22 L0,22 Z " fill="#042549" transform="translate(499,648)"/>
<path d="M0,0 L12,0 L12,12 L13,12 L13,13 L23,13 L23,25 L12,25 L12,13 L0,13 Z " fill="#AEECFB" transform="translate(710,363)"/>
<path d="M0,0 L1,0 L1,18 L2,18 L2,20 L3,20 L3,21 L1,21 L1,22 L13,22 L13,23 L0,23 L0,36 L-8,36 L-8,37 L-18,37 L-18,38 L-19,38 L-19,27 L-10,27 L-10,21 L0,21 Z " fill="#08DAF2" transform="translate(614,929)"/>
<path d="M0,0 L35,0 L35,12 L48,12 L48,24 L34,24 L34,12 L33,12 L33,2 L2,2 L2,12 L0,12 Z " fill="#A7E1ED" transform="translate(662,339)"/>
<path d="M0,0 L23,0 L23,12 L0,12 Z " fill="#1AADFB" transform="translate(353,462)"/>
<path d="M0,0 L14,0 L14,22 L3,22 L3,10 L-1,10 L-1,9 L0,9 Z " fill="#09EDFA" transform="translate(517,742)"/>
<path d="M0,0 L10,0 L10,10 L22,10 L22,21 L29,21 L29,32 L28,32 L28,22 L10,22 L10,11 L0,11 Z " fill="#0049B6" transform="translate(432,742)"/>
<path d="M0,0 L12,0 L12,12 L22,12 L22,23 L11,23 L11,12 L0,12 Z " fill="#1F88DF" transform="translate(776,752)"/>
<path d="M0,0 L10,0 L10,11 L9,11 L9,22 L-5,22 L-5,11 L0,11 Z " fill="#059DF2" transform="translate(367,697)"/>
<path d="M0,0 L24,0 L24,11 L0,11 Z " fill="#0164E7" transform="translate(491,474)"/>
<path d="M0,0 L12,0 L12,12 L11,12 L11,1 L1,1 L1,74 L6,74 L6,75 L11,75 L11,76 L12,76 L12,77 L13,77 L13,78 L12,78 L12,88 L21,88 L21,98 L10,98 L10,77 L0,77 Z " fill="#0E8BCE" transform="translate(835,397)"/>
<path d="M0,0 L23,0 L23,11 L0,11 Z " fill="#016BEB" transform="translate(734,474)"/>
<path d="M0,0 L11,0 L11,22 L0,22 Z " fill="#005FE5" transform="translate(410,708)"/>
<path d="M0,0 L1,0 L1,9 L12,9 L12,20 L22,20 L22,31 L12,31 L12,21 L2,21 L2,10 L0,10 Z " fill="#3DC6FA" transform="translate(889,627)"/>
<path d="M0,0 L11,0 L11,12 L2,12 L2,59 L9,59 L9,60 L0,60 Z " fill="#0399F3" transform="translate(311,674)"/>
<path d="M0,0 L19,0 L19,13 L18,13 L18,12 L0,12 Z " fill="#0EA3FC" transform="translate(767,498)"/>
<path d="M0,0 L11,0 L11,21 L1,21 L1,11 L0,11 Z " fill="#40C8F7" transform="translate(856,697)"/>
<path d="M0,0 L23,0 L23,1 L3,1 L3,2 L9,2 L9,3 L17,3 L17,4 L18,4 L18,5 L17,5 L17,10 L2,10 L2,1 L1,1 L1,11 L54,11 L54,12 L1,12 L1,22 L0,22 Z " fill="#001D48" transform="translate(733,485)"/>
<path d="M0,0 L11,0 L11,19 L0,19 Z " fill="#0058E0" transform="translate(331,686)"/>
<path d="M0,0 L1,0 L1,35 L-7,35 L-7,22 L-16,22 L-16,21 L-7,21 L-7,13 L-2,13 L-2,12 L-1,12 L-1,11 L0,11 L0,10 L-1,10 L-1,3 L0,3 Z " fill="#0056DA" transform="translate(378,749)"/>
<path d="M0,0 L11,0 L11,11 L1,11 L1,23 L-10,23 L-10,22 L0,22 L0,21 L-10,21 L-10,15 L0,15 Z " fill="#0053D3" transform="translate(387,496)"/>
<path d="M0,0 L16,0 L16,12 L0,12 Z " fill="#ECFBFE" transform="translate(504,752)"/>
<path d="M0,0 L39,0 L39,21 L8,21 L8,20 L37,20 L37,1 L5,1 L5,2 L3,2 L3,10 L1,10 L1,11 L-31,11 L-31,22 L-32,22 L-32,10 L0,10 Z " fill="#04C2DA" transform="translate(727,1030)"/>
<path d="M0,0 L1,0 L1,24 L-20,24 L-20,29 L-30,29 L-30,28 L-21,28 L-21,23 L-11,23 L-11,12 L0,12 Z " fill="#00143E" transform="translate(787,648)"/>
<path d="M0,0 L11,0 L11,16 L0,16 Z " fill="#1AB1FD" transform="translate(432,524)"/>
<path d="M0,0 L41,0 L41,1 L12,1 L12,12 L3,12 L3,11 L2,11 L2,12 L0,12 Z " fill="#0B8DE8" transform="translate(788,660)"/>
<path d="M0,0 L13,0 L13,13 L0,13 Z " fill="#A5E6F8" transform="translate(529,363)"/>
<path d="M0,0 L14,0 L14,12 L0,12 Z " fill="#AAE8F8" transform="translate(542,351)"/>
<path d="M0,0 L1,0 L1,37 L-9,37 L-9,30 L-19,30 L-19,29 L-9,29 L-9,24 L0,24 Z " fill="#005CD7" transform="translate(330,705)"/>
<path d="M0,0 L12,0 L12,13 L0,13 Z " fill="#E1E2E4" transform="translate(699,577)"/>
<path d="M0,0 L14,0 L14,11 L0,11 Z " fill="#28BBFB" transform="translate(865,553)"/>
<path d="M0,0 L9,0 L9,11 L18,11 L18,23 L10,23 L10,30 L0,30 L0,29 L9,29 L9,22 L17,22 L17,12 L0,12 Z " fill="#0076F6" transform="translate(891,541)"/>
<path d="M0,0 L12,0 L12,12 L0,12 Z " fill="#0050D1" transform="translate(455,685)"/>
<path d="M0,0 L12,0 L12,12 L0,12 Z " fill="#A1E9FC" transform="translate(517,376)"/>
<path d="M0,0 L13,0 L13,11 L0,11 Z " fill="#0186F5" transform="translate(614,884)"/>
<path d="M0,0 L11,0 L11,13 L0,13 Z " fill="#EDEEEF" transform="translate(554,577)"/>
<path d="M0,0 L22,0 L22,11 L10,11 L10,1 L0,1 Z " fill="#26B8F5" transform="translate(455,741)"/>
<path d="M0,0 L11,0 L11,22 L17,22 L17,23 L9,23 L9,10 L0,10 Z " fill="#000C23" transform="translate(488,648)"/>
<path d="M0,0 L13,0 L13,11 L12,11 L12,1 L1,1 L1,10 L2,10 L2,2 L11,2 L11,10 L10,10 L10,21 L19,21 L19,22 L9,22 L9,11 L0,11 Z " fill="#001E46" transform="translate(582,625)"/>
<path d="M0,0 L1,0 L1,1 L11,1 L11,13 L0,13 Z " fill="#12AFFB" transform="translate(846,409)"/>
<path d="M0,0 L12,0 L12,11 L0,11 Z " fill="#24B9FC" transform="translate(504,708)"/>
<path d="M0,0 L2,0 L2,1 L10,1 L10,14 L0,14 Z " fill="#000D24" transform="translate(506,671)"/>
<path d="M0,0 L11,0 L11,12 L0,12 Z " fill="#027FF0" transform="translate(377,626)"/>
<path d="M0,0 L1,0 L1,10 L23,10 L23,11 L1,11 L1,35 L0,35 L0,11 L-10,11 L-10,63 L1,63 L1,64 L-11,64 L-11,10 L0,10 Z " fill="#153D65" transform="translate(531,541)"/>
<path d="M0,0 L11,0 L11,12 L0,12 Z " fill="#33C1FB" transform="translate(890,462)"/>
<path d="M0,0 L12,0 L12,11 L0,11 Z " fill="#13C2FC" transform="translate(478,462)"/>
<path d="M0,0 L12,0 L12,11 L0,11 Z " fill="#A3E5FB" transform="translate(757,450)"/>
<path d="M0,0 L12,0 L12,11 L0,11 Z " fill="#98E5FA" transform="translate(478,450)"/>
<path d="M0,0 L12,0 L12,11 L0,11 L0,3 L1,3 L1,2 L0,2 Z " fill="#1CC4FC" transform="translate(757,462)"/>
<path d="M0,0 L10,0 L10,13 L0,13 Z " fill="#04AAF8" transform="translate(780,966)"/>
<path d="M0,0 L10,0 L10,13 L0,13 Z " fill="#3EC6FA" transform="translate(399,659)"/>
<path d="M0,0 L11,0 L11,11 L0,11 Z " fill="#1A8CEF" transform="translate(765,741)"/>
<path d="M0,0 L11,0 L11,11 L0,11 Z " fill="#0050D2" transform="translate(421,730)"/>
<path d="M0,0 L11,0 L11,11 L0,11 Z " fill="#0055DC" transform="translate(467,697)"/>
<path d="M0,0 L11,0 L11,11 L0,11 Z " fill="#004CCA" transform="translate(342,675)"/>
<path d="M0,0 L11,0 L11,11 L0,11 Z " fill="#AFEBF9" transform="translate(733,389)"/>
<path d="M0,0 L11,0 L11,11 L0,11 Z " fill="#16B4FB" transform="translate(925,388)"/>
<path d="M0,0 L10,0 L10,12 L0,12 Z " fill="#0053D0" transform="translate(399,685)"/>
<path d="M0,0 L9,0 L9,13 L0,13 Z " fill="#34C8FB" transform="translate(911,658)"/>
<path d="M0,0 L9,0 L9,13 L0,13 Z " fill="#15ACFB" transform="translate(397,410)"/>
<path d="M0,0 L1,0 L1,1 L10,1 L10,12 L0,12 Z " fill="#1ABBFA" transform="translate(377,685)"/>
<path d="M0,0 L2,0 L2,11 L1,11 L1,12 L-8,12 L-8,1 L0,1 Z " fill="#079DFE" transform="translate(910,387)"/>
<path d="M0,0 L11,0 L11,10 L0,10 Z " fill="#0061EA" transform="translate(479,708)"/>
<path d="M0,0 L10,0 L10,11 L0,11 Z " fill="#2CC7F9" transform="translate(311,674)"/>
<path d="M0,0 L10,0 L10,11 L0,11 Z " fill="#0052D2" transform="translate(890,675)"/>
<path d="M0,0 L10,0 L10,11 L0,11 Z " fill="#006BF1" transform="translate(788,625)"/>
<path d="M0,0 L10,0 L10,11 L0,11 Z " fill="#33C1FC" transform="translate(377,553)"/>
<path d="M0,0 L10,0 L10,11 L0,11 Z " fill="#2BC0F9" transform="translate(366,541)"/>
<path d="M0,0 L11,0 L11,10 L0,10 Z " fill="#0050D1" transform="translate(845,485)"/>
<path d="M0,0 L10,0 L10,11 L0,11 Z " fill="#3EC1FA" transform="translate(354,462)"/>
<path d="M0,0 L2,0 L2,1 L3,1 L3,4 L2,4 L2,19 L3,19 L3,20 L2,20 L2,23 L3,23 L3,24 L2,24 L2,31 L1,31 L1,32 L-9,32 L-9,37 L-8,37 L-8,45 L-9,45 L-9,46 L-8,46 L-8,47 L-4,47 L-4,48 L-10,48 L-10,31 L0,31 Z " fill="#067DDE" transform="translate(212,436)"/>
<path d="M0,0 L10,0 L10,11 L4,11 L4,10 L0,10 Z " fill="#2CA1F4" transform="translate(788,764)"/>
<path d="M0,0 L8,0 L8,12 L9,12 L9,13 L0,13 Z " fill="#33C2FC" transform="translate(322,659)"/>
<path d="M0,0 L10,0 L10,9 L1,9 L1,10 L11,10 L11,11 L0,11 Z " fill="#0043BE" transform="translate(410,719)"/>
<path d="M0,0 L10,0 L10,10 L1,10 L1,11 L0,11 Z " fill="#0051D5" transform="translate(398,485)"/>
<path d="M0,0 L10,0 L10,10 L0,10 Z " fill="#0056DA" transform="translate(432,742)"/>
<path d="M0,0 L10,0 L10,10 L0,10 Z " fill="#28BBFB" transform="translate(857,708)"/>
<path d="M0,0 L10,0 L10,10 L0,10 Z " fill="#00091F" transform="translate(456,698)"/>
<path d="M0,0 L10,0 L10,10 L0,10 Z " fill="#BBEEFD" transform="translate(659,440)"/>
<path d="M0,0 L10,0 L10,10 L0,10 Z " fill="#AAE6F9" transform="translate(698,353)"/>
<path d="M0,0 L9,0 L9,11 L0,11 Z " fill="#2DC7FA" transform="translate(368,697)"/>
<path d="M0,0 L9,0 L9,11 L0,11 Z " fill="#38C5F7" transform="translate(921,674)"/>
<path d="M0,0 L1,0 L1,85 L-9,85 L-9,84 L-3,84 L-3,83 L-2,83 L-2,82 L0,82 Z " fill="#040516" transform="translate(1042,570)"/>
<path d="M0,0 L46,0 L46,1 L3,1 L3,2 L2,2 L2,12 L1,12 L1,13 L0,13 L0,14 L-8,14 L-8,13 L-20,13 L-20,12 L0,12 Z " fill="#00153D" transform="translate(677,697)"/>
<path d="M0,0 L1,0 L1,19 L-10,19 L-10,11 L-1,11 L-1,12 L0,12 Z " fill="#0046C1" transform="translate(341,686)"/>
<path d="M0,0 L1,0 L1,1 L3,1 L3,0 L4,0 L4,1 L5,1 L5,0 L10,0 L10,10 L0,10 Z " fill="#2BBCFC" transform="translate(836,439)"/>
<path d="M0,0 L1,0 L1,6 L2,6 L2,8 L9,8 L9,9 L27,9 L27,8 L29,8 L29,9 L34,9 L34,19 L35,19 L35,20 L61,20 L61,21 L33,21 L33,10 L0,10 Z " fill="#05041E" transform="translate(759,173)"/>
<path d="M0,0 L9,0 L9,10 L0,10 Z " fill="#0054D4" transform="translate(508,661)"/>
<path d="M0,0 L10,0 L10,9 L0,9 Z " fill="#0056D4" transform="translate(366,519)"/>
<path d="M0,0 L28,0 L28,1 L2,1 L2,11 L3,11 L3,9 L4,9 L4,11 L38,11 L38,12 L2,12 L2,13 L0,13 Z " fill="#B7EEF7" transform="translate(601,317)"/>
<path d="M0,0 L8,0 L8,11 L0,11 Z " fill="#31C9FB" transform="translate(478,753)"/>
<path d="M0,0 L1,0 L1,9 L-9,9 L-9,20 L-27,20 L-27,31 L-39,31 L-39,30 L-28,30 L-28,20 L-29,20 L-29,19 L-28,19 L-28,18 L-12,18 L-12,19 L-10,19 L-10,8 L0,8 Z " fill="#04365C" transform="translate(377,221)"/>
<path d="M0,0 L12,0 L12,12 L8,12 L8,3 L10,3 L10,2 L2,2 L2,13 L0,13 Z " fill="#B8EBF5" transform="translate(710,363)"/>
<path d="M0,0 L1,0 L1,11 L-10,11 L-10,10 L0,10 L0,9 L-10,9 L-10,3 L0,3 Z " fill="#004BC0" transform="translate(387,508)"/>
<path d="M0,0 L10,0 L10,51 L9,51 L9,1 L3,1 L3,2 L2,2 L2,3 L1,3 L1,12 L0,12 Z " fill="#31D3FB" transform="translate(407,398)"/>
<path d="M0,0 L1,0 L1,4 L2,4 L2,3 L7,3 L7,4 L8,4 L8,3 L9,3 L9,11 L0,11 Z " fill="#30C6FD" transform="translate(332,647)"/>
<path d="M0,0 L9,0 L9,8 L1,8 L1,9 L0,9 Z " fill="#CDF6FE" transform="translate(582,441)"/>
<path d="M0,0 L8,0 L8,9 L0,9 Z " fill="#006DF7" transform="translate(958,486)"/>
<path d="M0,0 L6,0 L6,12 L0,12 Z " fill="#9BE3F8" transform="translate(510,388)"/>
<path d="M0,0 L10,0 L10,1 L1,1 L1,14 L0,14 L0,15 L-3,15 L-3,16 L-4,16 L-4,15 L-7,15 L-7,16 L-8,16 L-8,17 L-9,17 L-9,26 L-8,26 L-8,30 L-9,30 L-9,31 L-10,31 L-10,13 L0,13 Z " fill="#0487D5" transform="translate(396,409)"/>
<path d="M0,0 L11,0 L11,8 L10,8 L10,9 L3,9 L3,3 L4,3 L4,2 L10,2 L10,1 L0,1 Z " fill="#005DE5" transform="translate(443,752)"/>
<path d="M0,0 L5,0 L5,1 L6,1 L6,11 L0,11 Z " fill="#0078F5" transform="translate(461,763)"/>
<path d="M0,0 L1,0 L1,3 L2,3 L2,5 L4,5 L4,6 L5,6 L5,7 L13,7 L13,11 L1,11 L1,7 L0,7 Z " fill="#004DCF" transform="translate(867,512)"/>
<path d="M0,0 L1,0 L1,12 L10,12 L10,17 L1,17 L1,18 L0,18 Z " fill="#0053C6" transform="translate(900,686)"/>
<path d="M0,0 L13,0 L13,2 L8,2 L8,3 L3,3 L3,10 L2,10 L2,2 L1,2 L1,25 L0,25 Z " fill="#05314A" transform="translate(363,376)"/>
<path d="M0,0 L1,0 L1,9 L2,9 L2,11 L1,11 L1,15 L2,15 L2,16 L1,16 L1,18 L3,18 L3,17 L4,17 L4,18 L9,18 L9,19 L11,19 L11,20 L-1,20 L-1,1 L0,1 Z " fill="#05A1FA" transform="translate(505,732)"/>
<path d="M0,0 L46,0 L46,1 L3,1 L3,2 L2,2 L2,4 L1,4 L1,11 L0,11 Z " fill="#03DFF8" transform="translate(648,1052)"/>
<path d="M0,0 L1,0 L1,13 L9,13 L9,14 L1,14 L1,15 L0,15 L0,16 L-1,16 L-1,14 L-13,14 L-13,1 L-12,1 L-12,13 L-3,13 L-3,11 L-2,11 L-2,8 L-1,8 L-1,12 L0,12 Z " fill="#0D76EC" transform="translate(672,426)"/>
<path d="M0,0 L1,0 L1,11 L13,11 L13,22 L12,22 L12,12 L1,12 L1,23 L0,23 L0,12 L-12,12 L-12,11 L0,11 Z " fill="#5AD3FC" transform="translate(490,450)"/>
<path d="M0,0 L1,0 L1,6 L2,6 L2,11 L-8,11 L-8,25 L-18,25 L-18,24 L-9,24 L-9,9 L0,9 Z " fill="#03274E" transform="translate(253,360)"/>
<path d="M0,0 L11,0 L11,1 L2,1 L2,2 L3,2 L3,3 L2,3 L2,9 L10,9 L10,3 L11,3 L11,11 L0,11 Z " fill="#299DF4" transform="translate(776,753)"/>
<path d="M0,0 L9,0 L9,6 L0,6 Z " fill="#2292ED" transform="translate(433,769)"/>
<path d="M0,0 L11,0 L11,21 L9,21 L9,5 L8,5 L8,2 L9,2 L9,1 L0,1 Z " fill="#0290F0" transform="translate(868,440)"/>
<path d="M0,0 L1,0 L1,11 L17,11 L17,15 L16,15 L16,14 L15,14 L15,13 L0,13 L0,6 L-1,6 L-1,1 L0,1 Z " fill="#2FCBF1" transform="translate(828,661)"/>
<path d="M0,0 L1,0 L1,23 L0,23 L0,6 L-1,6 L-1,18 L-2,18 L-2,2 L-9,2 L-9,1 L0,1 Z " fill="#0E1A31" transform="translate(676,553)"/>
<path d="M0,0 L9,0 L9,5 L8,5 L8,32 L7,32 L7,2 L0,2 Z " fill="#000718" transform="translate(901,705)"/>
<path d="M0,0 L2,0 L2,1 L10,1 L10,2 L2,2 L2,11 L1,11 L1,12 L0,12 Z M-10,12 L0,12 L0,13 L-9,13 L-9,23 L-10,23 Z " fill="#0DA4FA" transform="translate(310,283)"/>
<path d="M0,0 L4,0 L4,1 L3,1 L3,2 L2,2 L2,9 L1,9 L1,10 L2,10 L2,12 L1,12 L1,20 L2,20 L2,27 L1,27 L1,29 L0,29 Z " fill="#068AF1" transform="translate(224,407)"/>
<path d="M0,0 L1,0 L1,12 L11,12 L11,11 L13,11 L13,12 L14,12 L14,24 L12,24 L12,13 L0,13 Z " fill="#022B4B" transform="translate(925,375)"/>
<path d="M0,0 L11,0 L11,11 L5,11 L5,9 L9,9 L9,2 L0,2 Z " fill="#1F8EE3" transform="translate(765,741)"/>
<path d="M0,0 L1,0 L1,14 L11,14 L11,17 L0,17 Z " fill="#0054BC" transform="translate(856,495)"/>
<path d="M0,0 L12,0 L12,11 L0,11 L0,10 L11,10 L11,2 L9,2 L9,3 L8,3 L8,2 L0,2 Z " fill="#B4EDF8" transform="translate(757,450)"/>
<path d="M0,0 L9,0 L9,2 L2,2 L2,8 L1,8 L1,9 L10,9 L10,10 L0,10 Z " fill="#A4E6FD" transform="translate(659,440)"/>
<path d="M0,0 L2,0 L2,15 L-9,15 L-9,14 L1,14 L1,8 L0,8 L0,13 L-1,13 L-1,12 L-2,12 L-2,11 L-1,11 L-1,6 L0,6 Z " fill="#0C7FD5" transform="translate(286,345)"/>
<path d="M0,0 L1,0 L1,1 L4,1 L4,3 L3,3 L3,10 L10,10 L10,11 L0,11 Z " fill="#04BFDE" transform="translate(472,1052)"/>
<path d="M0,0 L1,0 L1,4 L2,4 L2,5 L-8,5 L-8,16 L-9,16 L-9,5 L-10,5 L-10,4 L-9,4 L-9,3 L0,3 Z " fill="#04BDE1" transform="translate(442,1005)"/>
<path d="M0,0 L1,0 L1,6 L13,6 L13,7 L10,7 L10,8 L-1,8 L-1,1 L0,1 Z " fill="#010914" transform="translate(518,733)"/>
<path d="M0,0 L6,0 L6,6 L0,6 Z " fill="#BCEDFD" transform="translate(583,442)"/>
<path d="M0,0 L12,0 L12,1 L9,1 L9,2 L4,2 L4,3 L3,3 L3,6 L2,6 L2,1 L1,1 L1,12 L0,12 Z " fill="#0171BD" transform="translate(565,605)"/>
<path d="M0,0 L10,0 L10,2 L1,2 L1,11 L0,11 L0,6 L-1,6 L-1,1 L0,1 Z " fill="#0A162F" transform="translate(752,850)"/>
<path d="M0,0 L4,0 L4,2 L2,2 L2,4 L1,4 L1,7 L2,7 L2,9 L1,9 L1,18 L2,18 L2,20 L1,20 L1,21 L0,21 Z " fill="#078CF1" transform="translate(235,385)"/>
<path d="M0,0 L6,0 L6,1 L4,1 L4,2 L3,2 L3,3 L2,3 L2,12 L1,12 L1,13 L0,13 Z " fill="#0FADFA" transform="translate(408,198)"/>
<path d="M0,0 L9,0 L9,1 L4,1 L4,2 L3,2 L3,3 L2,3 L2,10 L1,10 L1,11 L0,11 Z " fill="#001341" transform="translate(832,625)"/>
<path d="M0,0 L1,0 L1,3 L2,3 L2,4 L1,4 L1,6 L3,6 L3,5 L4,5 L4,6 L9,6 L9,7 L11,7 L11,8 L-1,8 L-1,6 L0,6 Z " fill="#149FFB" transform="translate(505,744)"/>
<path d="M0,0 L9,0 L9,3 L1,3 L1,4 L0,4 Z " fill="#0091D0" transform="translate(605,962)"/>
<path d="M0,0 L1,0 L1,3 L2,3 L2,5 L4,5 L4,6 L5,6 L5,7 L13,7 L13,8 L1,8 L1,7 L0,7 Z " fill="#0169DD" transform="translate(867,512)"/>
<path d="M0,0 L1,0 L1,3 L2,3 L2,4 L-9,4 L-9,2 L-8,2 L-8,1 L-5,1 L-5,2 L-1,2 L-1,1 L0,1 Z " fill="#0978D9" transform="translate(231,466)"/>
<path d="M0,0 L8,0 L8,3 L0,3 Z " fill="#00B5EC" transform="translate(629,962)"/>
<path d="M0,0 L8,0 L8,9 L7,9 L7,3 L5,3 L5,2 L1,2 L1,1 L0,1 Z " fill="#06E8FA" transform="translate(638,956)"/>
<path d="M0,0 L1,0 L1,7 L2,7 L2,6 L3,6 L3,8 L2,8 L2,9 L3,9 L3,11 L5,11 L5,12 L0,12 Z " fill="#005BCF" transform="translate(299,880)"/>
<path d="M0,0 L1,0 L1,5 L2,5 L2,9 L3,9 L3,10 L8,10 L8,11 L0,11 Z " fill="#96E5FC" transform="translate(733,389)"/>
<path d="M0,0 L10,0 L10,1 L3,1 L3,2 L2,2 L2,3 L1,3 L1,12 L0,12 Z " fill="#20D3FB" transform="translate(407,398)"/>
<path d="M0,0 L11,0 L11,1 L5,1 L5,2 L3,2 L3,3 L2,3 L2,4 L1,4 L1,7 L0,7 Z " fill="#189DF2" transform="translate(339,252)"/>
<path d="M0,0 L7,0 L7,1 L3,1 L3,2 L2,2 L2,3 L3,3 L3,4 L2,4 L2,8 L1,8 L1,9 L0,9 Z " fill="#0DABFC" transform="translate(378,221)"/>
<path d="M0,0 L1,0 L1,2 L2,2 L2,1 L3,1 L3,4 L2,4 L2,5 L12,5 L12,6 L0,6 Z " fill="#005CD4" transform="translate(309,895)"/>
<path d="M0,0 L5,0 L5,1 L4,1 L4,2 L3,2 L3,3 L2,3 L2,4 L3,4 L3,5 L2,5 L2,6 L1,6 L1,9 L0,9 Z " fill="#001138" transform="translate(947,530)"/>
<path d="M0,0 L11,0 L11,1 L1,1 L1,2 L5,2 L5,3 L4,3 L4,4 L3,4 L3,5 L2,5 L2,4 L0,4 Z " fill="#011E4F" transform="translate(211,510)"/>
<path d="M0,0 L10,0 L10,2 L9,2 L9,3 L8,3 L8,4 L7,4 L7,2 L1,2 L1,1 L0,1 Z " fill="#A068F6" transform="translate(940,293)"/>
<path d="M0,0 L1,0 L1,1 L9,1 L9,2 L5,2 L5,3 L4,3 L4,4 L3,4 L3,5 L2,5 L2,2 L1,2 L1,4 L0,4 Z " fill="#001238" transform="translate(856,771)"/>
<path d="M0,0 L1,0 L1,3 L2,3 L2,2 L3,2 L3,3 L5,3 L5,4 L8,4 L8,5 L0,5 Z " fill="#8E52ED" transform="translate(881,266)"/>
</svg>
